<svg width="86px" height="115px" viewBox="0 0 86 115" version="1.1" xmlns="http://www.w3.org/2000/svg">
    <g id="Q3-" stroke="none" strokeWidth="1" fill="none" fillRule="evenodd">
        <g id="Two-datasets-imported-and-user-grid-Copy-3" transform="translate(-1209.000000, -456.000000)">
            <g id="message_data_is_protected" transform="translate(1113.000000, 457.000000)">
                <g id="icon_restricted_access_blue" transform="translate(97.000000, 0.000000)">
                    <g>
                        <path d="M14,35 L14,28.3744417 C14,12.7684988 26.6,0 42,0 C57.4,0 70,12.7684988 70,28.3744417 L70,35 L76.986,35 C80.857,35 84,38.1554545 84,42.0625455 L84,105.937455 C84,109.837455 80.808,113 76.986,113 L7.014,113 C3.143,113 0,109.844545 0,105.937455 L0,42.0625455 C0,38.1625455 3.192,35 7.014,35 L14,35 Z M56,35 L56,28.3744417 C56,20.5501894 49.721,14.1872209 42,14.1872209 C34.279,14.1872209 28,20.5501894 28,28.3744417 L28,35 L56,35 Z" id="Combined-Shape" stroke="#1C91DC" fill="#D7EEFB"></path>
                        <path d="M14.8530592,72.415876 C19.058676,68.1830595 29.6253761,59 41.9964895,59 C54.3746239,59 64.941324,68.1830595 69.1469408,72.415876 C70.2843531,73.5565841 70.2843531,75.4362416 69.1469408,76.5769498 C64.941324,80.8097663 54.3746239,90 41.9964895,90 C29.6253761,90 19.058676,80.8097663 14.8530592,76.5769498 C13.7156469,75.4290673 13.7156469,73.5565841 14.8530592,72.415876 Z" id="Clip-13" stroke="#1C91DC" fill="#FFFFFF"></path>
                        <path d="M31,75.0071382 C31,81.0746269 35.6955671,86 41.4931551,86 C47.297588,86 52,81.0746269 52,75.0071382 C52,68.9253731 47.297588,64 41.4931551,64 C35.6955671,64 31,68.9253731 31,75.0071382 Z" id="Clip-13" fill="#1C91DC"></path>
                        <path d="M36,74.5 C36,77.53875 38.4651601,80 41.5034526,80 C44.5417451,80 47,77.53875 47,74.5 C47,71.46125 44.5417451,69 41.5034526,69 C38.4651601,69 36,71.46125 36,74.5 Z" id="Clip-10" fill="#FFFFFF"></path>
                    </g>
                </g>
            </g>
        </g>
    </g>
</svg>