<?xml version="1.0" encoding="UTF-8"?>
<svg width="21px" height="18px" viewBox="0 0 21 18" version="1.1" xmlns="http://www.w3.org/2000/svg" xmlns:xlink="http://www.w3.org/1999/xlink">
    <g id="Symbols" stroke="none" strokeWidth="1" fill="none" fillRule="evenodd">
        <g id="icon_Dossier" fill="#1C91DC" fillRule="nonzero">
            <g transform="translate(-0.000000, 0.000000)">
                <path d="M20.4434414,8.41331279 L12.6534478,16.4096158 L6.28564416,10.0277814 C5.78260831,9.52415533 5.77826243,8.70314572 6.27477946,8.19400956 C6.77129648,7.68377136 7.58071702,7.67936326 8.08375286,8.18298929 L13.8442195,13.9565052 L21.0344813,6.57513288 L14.9708894,0.49745768 C14.3037965,-0.171472302 13.2184125,-0.164860143 12.5600114,0.511784021 L5.36866305,7.89315636 C4.70917545,8.56980053 4.71569427,9.67072483 5.38387363,10.3396548 L12.6599667,17.6328651 L21.049692,9.0205293 L20.4434414,8.41331279" id="Fill-8"></path>
                <path d="M8.46418046,0.54772366 C8.00460345,0.54772366 7.54393995,0.726251926 7.19735585,1.08220643 L0.512302777,7.94342235 C-0.176519529,8.65202527 -0.170000706,9.80143874 0.527513364,10.5012254 L7.15715643,17.1266077 L7.78404993,16.4830244 L1.47056977,10.1750257 C0.945804512,9.64825708 0.940372159,8.7908806 1.45970506,8.25860188 C1.72154445,7.98970745 2.06595561,7.85526024 2.41036676,7.85526024 C2.74934557,7.85526024 3.08941083,7.98529935 3.35016375,8.24647958 L11.2629285,16.1777631 L11.2857444,16.1535185 L5.97290358,10.8285273 C5.30472422,10.1595973 5.29820538,9.05867299 5.95769299,8.38202883 L11.4204667,2.77381684 L9.71796745,1.06677806 C9.37138335,0.720741794 8.91832514,0.54772366 8.46418046,0.54772366" id="Fill-4"></path>
            </g>
        </g>
    </g>
</svg>