<?xml version="1.0" encoding="UTF-8"?>
<svg width="187px" height="107px" view-box="0 0 187 107" version="1.1" xmlns="http://www.w3.org/2000/svg" xmlns:xlink="http://www.w3.org/1999/xlink">
    <g id="Q1-19" stroke="none" strokeWidth="1" fill="none" fillRule="evenodd">
        <g id="Imported-Data" transform="translate(-1154.000000, -424.000000)">
            <g id="Group-8" transform="translate(1121.000000, 420.000000)">
                <g id="Group-5" transform="translate(33.000000, 0.000000)">
                    <path d="M56.0233646,43.9634471 C55.9730663,43.963688 55.9730663,43.963688 55.9227818,43.9648926 C53.9905835,44.020443 52.4692598,45.6318316 52.5248102,47.5640299 L53.9606488,97.506554 C53.9839737,98.3178589 54.6483891,98.9634471 55.4600293,98.9634471 L125.632917,98.9634471 C126.444558,98.9634471 127.108973,98.3178589 127.132298,97.506554 L128.568137,47.5640299 C128.569341,47.5137454 128.569341,47.5137454 128.569582,47.4634471 C128.569582,45.5304504 127.002579,43.9634471 125.069582,43.9634471 L82.569256,43.9634471 L82.569256,40 C82.569256,39.7238576 82.3453984,39.5 82.069256,39.5 L63.5877301,39.5 C63.3115878,39.5 63.0877301,39.7238576 63.0877301,40 L63.0877301,43.9634471 L56.0233646,43.9634471 Z" id="Rectangle-6" stroke="#1C91DC" fill="#FFFFFF" fillRule="nonzero"></path>
                    <g id="Dataset" transform="translate(165.047121, 24.287549) rotate(28.000000) translate(-165.047121, -24.287549) translate(149.047121, 5.287549)" fill="#1C91DC">
                        <g id="Group-26" transform="translate(0.941017, 0.000000)">
                            <path d="M30.5179726,7.30944851 C30.5216164,7.2491725 30.52345,7.18869404 30.52345,7.12802363 C30.52345,3.49699849 23.955649,0.553471021 15.8538558,0.553471021 C7.75206255,0.553471021 1.18426147,3.49699849 1.18426147,7.12802363 C1.18426147,7.18869404 1.18609512,7.2491725 1.18973892,7.30944851 L1.18426147,7.30944846 L1.18426147,11.8374095 L1.21068724,11.8374095 C1.66966878,15.2831554 8.0501717,18.0140512 15.8538558,18.0140512 C23.6575398,18.0140512 30.0380427,15.2831554 30.4970243,11.8374095 L30.5188674,11.8374095 L30.5188674,11.6054602 C30.5219165,11.5503055 30.52345,11.4949823 30.52345,11.4394986 C30.52345,11.3840149 30.5219165,11.3286917 30.5188674,11.2735371 L30.5188674,7.30944846 L30.5179726,7.30944851 Z" id="Combined-Shape"></path>
                            <g id="Group" transform="translate(0.976760, 15.581315)">
                                <path d="M29.4369894,0.366810729 C29.4941893,0.602812582 29.5235414,0.842563886 29.5235414,1.08538989 C29.5235414,1.1460603 29.5217091,1.20653876 29.5180679,1.26681476 L29.5189621,5.23090332 C29.522009,5.28605795 29.5235414,5.34138115 29.5235414,5.39686488 C29.5235414,5.4523486 29.522009,5.5076718 29.5189621,5.56282643 L29.5189621,5.79477571 L29.4971346,5.79477571 C29.0384822,9.24052162 22.6625547,11.9714175 14.8644666,11.9714175 C7.06637855,11.9714175 0.690451053,9.24052162 0.231798644,5.79477571 L0.205391822,5.79477571 L0.205391822,1.26681472 L0.210863846,1.26681472 C0.207224152,1.20653876 0.205391822,1.1460603 0.205391822,1.08538989 C0.205391822,0.842563886 0.234744,0.602812582 0.291943888,0.366810729 C1.0900652,3.65979109 7.30990474,6.22278418 14.8644666,6.22278418 C22.4190285,6.22278418 28.6388681,3.65979109 29.4369894,0.366810729 L29.4369894,0.366810729 Z" id="Combined-Shape"></path>
                                <path d="M29.4420481,10.3449513 C29.4992097,10.5809531 29.5285423,10.8207044 29.5285423,11.0635304 C29.5285423,11.1242008 29.5267112,11.1846793 29.5230724,11.2449553 L29.523966,15.2090439 C29.5270109,15.2641985 29.5285423,15.3195217 29.5285423,15.3750054 C29.5285423,15.4304891 29.5270109,15.4858123 29.523966,15.540967 L29.523966,15.7729163 L29.5021531,15.7729163 C29.0438076,19.2186622 22.6721469,21.949558 14.8792773,21.949558 C7.08640776,21.949558 0.71474705,19.2186622 0.256401572,15.7729163 L0.230012421,15.7729163 L0.230012421,11.2449553 L0.235480783,11.2449553 C0.231843525,11.1846793 0.230012421,11.1242008 0.230012421,11.0635304 C0.230012421,10.8207044 0.259344957,10.5809531 0.316506567,10.3449513 C1.11409377,13.6379316 7.32977098,16.2009247 14.8792773,16.2009247 C22.4287837,16.2009247 28.6444609,13.6379316 29.4420481,10.3449513 L29.4420481,10.3449513 Z" id="Combined-Shape"></path>
                            </g>
                        </g>
                    </g>
                    <path d="M19,34.276597 L36.2496227,27 L50.2905674,32.6377093 L61.7966153,59.5760624 L34.6900652,71.0107149 L19,34.276597 Z M31.2504941,49.3401576 L48.5001168,42.0635606 L47.4541125,39.6146194 L30.2044897,46.8912165 L31.2504941,49.3401576 Z M33.3425028,54.23804 L50.5921255,46.961443 L49.5461212,44.5125018 L32.2964984,51.7890988 L33.3425028,54.23804 Z M35.4345115,59.1359224 L52.6841342,51.8593254 L51.6381299,49.4103842 L34.3885071,56.6869812 L35.4345115,59.1359224 Z M37.5572559,30.0614754 L40.4336401,36.7957648 L47.2099768,33.9372285 L37.5572559,30.0614754 Z" id="Combined-Shape" fill="#1C91DC"></path>
                    <g id="Group-2" transform="translate(115.425747, 40.374708) rotate(11.000000) translate(-115.425747, -40.374708) translate(102.925747, 25.874708)" fill="#1C91DC">
                        <path d="M24.631132,5.384661 C24.634073,5.33834723 24.6355529,5.29187791 24.6355529,5.2452611 C24.6355529,2.45532087 19.3346642,0.193627451 12.7956866,0.193627451 C6.25670908,0.193627451 0.955820396,2.45532087 0.955820396,5.2452611 C0.955820396,5.29187791 0.957300336,5.33834723 0.960241262,5.384661 L0.955820396,5.38466096 L0.955820396,8.86377223 L0.977148703,8.86377223 C1.34759385,11.511351 6.49731372,13.6096665 12.7956866,13.6096665 C19.0940596,13.6096665 24.2437794,11.511351 24.6142246,8.86377223 L24.6318542,8.86377223 L24.6318542,8.68555132 C24.6343152,8.64317262 24.6355529,8.6006644 24.6355529,8.55803283 C24.6355529,8.51540127 24.6343152,8.47289305 24.6318542,8.43051435 L24.6318542,5.38466096 L24.631132,5.384661 Z" id="Combined-Shape"></path>
                        <path d="M24.5470136,12.0222886 C24.5931798,12.2036234 24.61687,12.3878391 24.61687,12.5744172 C24.61687,12.621034 24.6153911,12.6675034 24.6124523,12.7138171 L24.613174,15.7596705 C24.6156331,15.8020492 24.61687,15.8445574 24.61687,15.887189 C24.61687,15.9298205 24.6156331,15.9723288 24.613174,16.0147074 L24.613174,16.1929284 L24.595557,16.1929284 C24.2253775,18.8405071 19.0793504,20.9388226 12.785494,20.9388226 C6.49163761,20.9388226 1.34561058,18.8405071 0.975431069,16.1929284 L0.954118057,16.1929284 L0.954118057,12.7138171 L0.958534541,12.7138171 C0.955596935,12.6675034 0.954118057,12.621034 0.954118057,12.5744172 C0.954118057,12.3878391 0.977808273,12.2036234 1.02397445,12.0222886 C1.66814015,14.5524882 6.68818821,16.5217936 12.785494,16.5217936 C18.8827998,16.5217936 23.9028479,14.5524882 24.5470136,12.0222886 L24.5470136,12.0222886 Z" id="Combined-Shape"></path>
                        <path d="M24.5510965,19.6891085 C24.5972318,19.8704432 24.6209061,20.0546589 24.6209061,20.2412371 C24.6209061,20.2878539 24.6194283,20.3343232 24.6164914,20.380637 L24.6172126,23.4264903 C24.6196701,23.468869 24.6209061,23.5113773 24.6209061,23.5540088 C24.6209061,23.5966404 24.6196701,23.6391486 24.6172126,23.6815273 L24.6172126,23.8597482 L24.5996074,23.8597482 C24.2296756,26.507327 19.0870923,28.6056425 12.7974478,28.6056425 C6.50780324,28.6056425 1.36521994,26.507327 0.995288154,23.8597482 L0.973989404,23.8597482 L0.973989404,20.3806369 L0.978402933,20.3806369 C0.975467293,20.3343232 0.973989404,20.2878539 0.973989404,20.2412371 C0.973989404,20.0546589 0.997663767,19.8704432 1.04379905,19.6891085 C1.68753367,22.2193081 6.7042223,24.1886135 12.7974478,24.1886135 C18.8906732,24.1886135 23.9073619,22.2193081 24.5510965,19.6891085 L24.5510965,19.6891085 Z" id="Combined-Shape"></path>
                    </g>
                    <path d="M53.1166521,52.5 C53.0663537,52.500241 53.0663537,52.500241 53.0160692,52.5014456 C51.083871,52.5569959 49.5625473,54.1683846 49.6180976,56.1005828 L50.9980891,104.100583 C51.0525138,105.993628 52.6028164,107.5 54.4966435,107.5 L127.222838,107.5 C129.116665,107.5 130.666968,105.993628 130.721393,104.100583 L132.101384,56.1005828 C132.102589,56.0502983 132.102589,56.0502983 132.10283,56 C132.10283,54.0670034 130.535826,52.5 128.60283,52.5 L53.1166521,52.5 Z" id="Rectangle-6" stroke="#1C91DC" fill="#E1F3FD" fillRule="nonzero"></path>
                    <path d="M54.1735089,53 L127.492761,53 C129.7019,53 131.492761,54.790861 131.492761,57 C131.492761,57.0716616 131.490835,57.1433103 131.486986,57.2148684 L131.461942,57.6804102 L50.2118196,58 L50.1769995,57.1670714 C50.0847285,54.9598603 51.7992263,53.0957616 54.0064375,53.0034906 C54.0620976,53.0011638 54.1178002,53 54.1735089,53 Z" id="Rectangle-6" fill-opacity="0.4" fill="#FFFFFF" fillRule="nonzero"></path>
                    <path d="M51.3585252,104 L130.321957,104 L130.321957,104.069455 C130.321957,105.725003 128.980849,107.067607 127.325302,107.069453 L54.3835183,107.150799 C52.8181476,107.152545 51.5145521,105.950414 51.3897261,104.390027 L51.3585252,104 Z" id="Rectangle-3" fill-opacity="0.08" fill="#383B3D" fillRule="nonzero"></path>
                    <path d="M82.1442534,90.6767399 L101.074234,90.6767399 C104.374602,89.7487099 106.016482,87.6274286 105.999875,84.3128962 C105.983268,80.9983638 104.053821,78.9405793 100.211532,78.1395429 C99.1245161,72.9293871 96.3250403,70.2213711 91.813105,70.0154949 C87.3011696,69.8096188 84.3262229,71.6552995 82.8882648,75.5525371 C78.2542202,76.3000897 75.9583228,78.8902703 76.0005726,83.3230789 C76.0428224,87.7558875 78.090716,90.2071079 82.1442534,90.6767399 Z" id="Path-6" stroke="#FFFFFF" fill="#ADDCF4"></path>
                    <path d="M18.2913384,110.057112 C6.4349825,101.839368 0.506804568,93.6680767 0.506804568,85.5432388 C0.506804568,73.3559821 7.71038185,64.38041 18.2913384,60.2121889 C20.909787,39.4115142 29.8739682,25.8499149 45.1838822,19.5273912 C60.4937961,13.2048674 72.8047095,13.2048674 82.1166225,19.5273912 C101.704689,4.35899583 120.924791,0.955023297 139.776928,9.31547359 C158.629065,17.6759239 167.386479,30.110139 166.049172,46.6181189 C181.399159,54.9578938 188.314321,66.7660696 186.794657,82.0426463 C185.274992,97.319223 178.359831,106.657378 166.049172,110.057112 L18.2913384,110.057112 Z" id="Path-7" fill-opacity="0.0463088768" fill="#1C91DC" fillRule="nonzero"></path>
                </g>
            </g>
        </g>
    </g>
</svg>