<?xml version="1.0" encoding="UTF-8"?>
<svg width="20px" height="20px" viewBox="0 0 20 20" version="1.1" xmlns="http://www.w3.org/2000/svg" xmlns:xlink="http://www.w3.org/1999/xlink">
    <!-- Generator: Sketch 52.6 (67491) - http://www.bohemiancoding.com/sketch -->
    <title>icon_warning</title>
    <desc>Created with Sketch.</desc>
    <g id="icon_warning" stroke="none" stroke-width="1" fill="none" fill-rule="evenodd">
        <g id="icon_offline_conflict">
            <g id="Group-6" transform="translate(1.000000, 2.000000)">
                <g id="Group-3">
                    <path d="M8.15689254,0.757473249 C8.68238396,-0.215254622 9.53308611,-0.217638419 10.0598653,0.757473249 L17.8952555,15.2614255 C18.420747,16.2341533 17.9592569,17.0227051 16.8539209,17.0227051 L1.362837,17.0227051 C0.262232316,17.0227051 -0.205276887,16.2365371 0.321502319,15.2614255 L8.15689254,0.757473249 Z" id="Triangle-6" fill="#FFB132"></path>
                    <g id="Group" transform="translate(8.000000, 5.000000)" fill="#FFFFFF">
                        <path d="M0.869916545,6.07283756 C0.869916545,5.21190969 0.776225735,4.39936075 0.588841304,3.63516635 C0.401456873,2.87097196 0.205557907,2.07293282 0.00113852772,1.24102499 C0.00113852772,0.912131203 0.0905706646,0.638863255 0.269437621,0.421212953 C0.448304578,0.20356265 0.742153028,0.0947391308 1.15099179,0.0947391308 C1.5087257,0.0947391308 1.77702211,0.201144349 1.95588907,0.413957979 C2.13475602,0.626771608 2.22418816,0.912131058 2.22418816,1.27004489 C2.22418816,1.44416513 2.07939327,2.09226964 1.78979915,3.21437787 C1.50020503,4.3364861 1.35541014,5.28929647 1.35541014,6.07283756 L0.869916545,6.07283756 Z" id="!"></path>
                        <circle id="Oval-83" cx="1.11266334" cy="8.07766251" r="1.11152482"></circle>
                    </g>
                </g>
            </g>
        </g>
    </g>
</svg>